<?xml version="1.0" encoding="UTF-8"?>
<svg width="269px" height="49px" viewBox="0 0 269 49" version="1.1" xmlns="http://www.w3.org/2000/svg" xmlns:xlink="http://www.w3.org/1999/xlink">
    <!-- Generator: sketchtool 53.2 (72643) - https://sketchapp.com -->
    <title>45D24E69-5BB1-4506-B700-1DD8C08D51C8</title>
    <desc>Created with sketchtool.</desc>
    <g id="Page-1" stroke="none" stroke-width="1" fill="none" fill-rule="evenodd">
        <g id="Hazardous-waste-homepage-Option-2" transform="translate(-80.000000, -26.000000)">
            <g id="Logo" transform="translate(80.000000, 26.000000)">
                <g id="LHWMP-logo">
                    <polygon id="Shape" fill="#275AA8" fill-rule="nonzero" points="55.8065073 8.73413639 58.4755685 8.73413639 58.4755685 13.9087705 64.6512886 13.9087705 64.6512886 8.73413639 67.3078484 8.73413639 67.3078484 22.4503335 64.6512886 22.4503335 64.6512886 16.4370732 58.4755685 16.4370732 58.4755685 22.4503335 55.8065073 22.4503335"></polygon>
                    <path d="M77.1527464,12.3060627 L79.7155452,12.3060627 L79.7155452,22.4503335 L77.1527464,22.4503335 L77.1527464,21.3818616 C76.7132712,21.8107677 76.1984693,22.1560558 75.6338192,22.4006371 C75.1168212,22.6130303 74.561758,22.7187061 74.002379,22.7112394 C72.69381,22.7155158 71.446369,22.1612609 70.5769796,21.1892882 C69.611313,20.1650601 69.0922815,18.8029394 69.1330612,17.3999403 C69.0773654,15.9839073 69.5796941,14.6021377 70.5332245,13.5484719 C71.3888883,12.5781055 72.6291937,12.0287568 73.9273703,12.0451568 C74.5199319,12.0402259 75.1071763,12.156525 75.6525714,12.3868193 C76.2115676,12.6332927 76.7168764,12.9856639 77.1402449,13.424231 L77.1527464,12.3060627 Z M74.4586822,14.3933101 C73.7172885,14.3800436 73.0062856,14.6857852 72.5084548,15.2319363 C71.9594942,15.8163129 71.6690665,16.5949436 71.7021108,17.3937282 C71.6791885,18.183457 71.9686773,18.9506498 72.5084548,19.530672 C73.0098053,20.0843353 73.7280665,20.3947888 74.4774344,20.3817222 C75.2329676,20.3996386 75.9604174,20.0969042 76.4776676,19.5493081 C77.0123524,18.9599562 77.2948739,18.1867161 77.2652595,17.3937282 C77.3018134,16.6003986 77.0157259,15.8258025 76.4714169,15.2443604 C75.9531781,14.6886132 75.2209669,14.3790103 74.4586822,14.3933101 L74.4586822,14.3933101 Z" id="Shape" fill="#275AA8" fill-rule="nonzero"></path>
                    <polygon id="Shape" fill="#275AA8" fill-rule="nonzero" points="81.7157784 12.3060627 89.5291895 12.3060627 84.9411545 20.2947536 89.2666589 20.2947536 89.2666589 22.4503335 81.0094461 22.4503335 85.6349854 14.4616426 81.7345306 14.4616426"></polygon>
                    <path d="M98.0801866,12.3060627 L100.636735,12.3060627 L100.636735,22.4503335 L98.0801866,22.4503335 L98.0801866,21.3818616 C97.6433863,21.8082468 97.133164,22.1533033 96.5737609,22.4006371 C96.0545733,22.6130261 95.497472,22.7186852 94.93607,22.7112394 C93.6293351,22.7153416 92.3838874,22.1609607 91.5169213,21.1892882 C90.5497065,20.1635183 90.0305578,18.7988567 90.0730029,17.3937282 C90.0173071,15.9776952 90.5196358,14.5959257 91.4731662,13.5422598 C92.3253473,12.5707856 93.564358,12.0209977 94.8610612,12.0389447 C95.4536229,12.0340139 96.0408672,12.150313 96.5862624,12.3806073 C97.1471748,12.6269376 97.6545589,12.9792756 98.0801866,13.4180189 L98.0801866,12.3060627 Z M95.3861224,14.3933101 C94.6365553,14.3752722 93.9159635,14.6812148 93.4108921,15.2319363 C92.8687438,15.8192961 92.5851974,16.5975777 92.6233003,17.3937282 C92.5947669,18.1906613 92.882057,18.9668973 93.4233936,19.5555202 C93.9262107,20.1071561 94.6434975,20.4171883 95.3923732,20.4065704 C96.1483601,20.4268887 96.87676,20.1237589 97.3926064,19.5741563 C97.9379984,18.980523 98.225536,18.1969205 98.1926997,17.3937282 C98.226862,16.5996256 97.9385762,15.8251758 97.3926064,15.2443604 C96.8777196,14.6875788 96.14687,14.3775889 95.3861224,14.3933101 L95.3861224,14.3933101 Z" id="Shape" fill="#275AA8" fill-rule="nonzero"></path>
                    <path d="M103.137026,12.3060627 L105.337283,12.3060627 L105.337283,13.5857442 C105.530161,13.1201026 105.850689,12.7176182 106.262391,12.4240916 C106.644146,12.1670237 107.09516,12.030608 107.556292,12.0327327 C107.919695,12.0396101 108.276723,12.1288458 108.600163,12.2936386 L107.80007,14.4864908 C107.573996,14.3583751 107.322018,14.2819763 107.062484,14.2628571 C106.616705,14.2951703 106.228495,14.577292 106.062367,14.9896665 C105.717708,15.8988799 105.578983,16.8724273 105.65607,17.8409955 L105.65607,22.4379094 L103.137026,22.4379094 L103.137026,12.3060627 Z" id="Shape" fill="#275AA8" fill-rule="nonzero"></path>
                    <path d="M117.238671,8.38626182 L119.801469,8.38626182 L119.801469,22.4503335 L117.238671,22.4503335 L117.238671,21.3818616 C116.803996,21.8079461 116.295877,22.1530118 115.738496,22.4006371 C115.21916,22.612532 114.662161,22.7181717 114.100805,22.7112394 C112.79407,22.7153416 111.548622,22.1609607 110.681656,21.1892882 C109.715989,20.1650601 109.196958,18.8029394 109.237738,17.3999403 C109.179672,15.9846603 109.679806,14.602758 110.63165,13.5484719 C111.487314,12.5781055 112.727619,12.0287568 114.025796,12.0451568 C114.618358,12.0402259 115.205602,12.156525 115.750997,12.3868193 C116.309993,12.6332927 116.815302,12.9856639 117.238671,13.424231 L117.238671,8.38626182 Z M114.544606,14.3933101 C113.797042,14.3762609 113.078766,14.6821884 112.575627,15.2319363 C112.033478,15.8192961 111.749932,16.5975777 111.788035,17.3937282 C111.759502,18.1906613 112.046792,18.9668973 112.588128,19.5555202 C113.089479,20.1091835 113.80774,20.4196369 114.557108,20.4065704 C115.312943,20.4260836 116.041024,20.1230866 116.557341,19.5741563 C117.100466,18.9795456 117.385716,18.1960552 117.351184,17.3937282 C117.387738,16.6003986 117.10165,15.8258025 116.557341,15.2443604 C116.039102,14.6886132 115.306891,14.3790103 114.544606,14.3933101 L114.544606,14.3933101 Z" id="Shape" fill="#275AA8" fill-rule="nonzero"></path>
                    <path d="M126.433493,12.0451568 C127.385386,12.0409554 128.32141,12.2874451 129.146309,12.7595421 C129.975101,13.217921 130.662354,13.8923292 131.134041,14.7101244 C132.087904,16.3647549 132.087904,18.3978534 131.134041,20.0524838 C130.674354,20.8703906 129.997618,21.5472357 129.177563,22.0092782 C128.345036,22.4780154 127.402801,22.720152 126.445994,22.7112394 C125.032653,22.7358688 123.673152,22.1729158 122.695557,21.158228 C121.677398,20.169845 121.114342,18.8079948 121.139125,17.3937282 C121.125211,14.4689658 123.490647,12.0820875 126.433493,12.0513688 L126.433493,12.0451568 Z M126.477248,14.4430065 C125.724383,14.4228832 124.998767,14.7235408 124.483265,15.2692086 C123.945973,15.8399521 123.660206,16.6002622 123.689423,17.3813041 C123.654982,18.1713133 123.93837,18.9424561 124.477015,19.5244599 C125.004098,20.0532967 125.722012,20.3508193 126.470997,20.3508193 C127.219982,20.3508193 127.937896,20.0532967 128.46498,19.5244599 C129.009268,18.9501199 129.297689,18.182024 129.265073,17.3937282 C129.297556,16.6107363 129.016615,15.8468396 128.483732,15.2692086 C127.964373,14.7215961 127.234126,14.4209053 126.477248,14.4430065 L126.477248,14.4430065 Z" id="Shape" fill="#275AA8" fill-rule="nonzero"></path>
                    <path d="M133.296793,12.3060627 L135.884595,12.3060627 L135.884595,17.1887307 C135.852371,17.8575235 135.919773,18.5273775 136.084618,19.1765854 C136.197149,19.5205207 136.415861,19.8204758 136.709691,20.0338477 C137.025923,20.2479262 137.402386,20.3566858 137.784816,20.34445 C138.170226,20.3565323 138.550015,20.2502424 138.872443,20.0400597 C139.182761,19.8215343 139.414865,19.5103497 139.53502,19.1517372 C139.671793,18.5404324 139.724363,17.9134946 139.691289,17.2881234 L139.691289,12.3184868 L142.254087,12.3184868 L142.254087,16.6172225 C142.32825,17.8435594 142.186525,19.0733517 141.835289,20.2512693 C141.537163,21.0166541 141.003375,21.6688888 140.310111,22.114883 C139.538241,22.5624332 138.652445,22.7781963 137.759813,22.7360876 C136.79684,22.7805185 135.844598,22.5194566 135.040746,21.9906421 C134.338163,21.4641963 133.830497,20.7216066 133.596828,19.8785465 C133.346128,18.778774 133.245214,17.6505173 133.296793,16.5240418 L133.296793,12.3060627 Z" id="Shape" fill="#275AA8" fill-rule="nonzero"></path>
                    <path d="M150.84884,13.7224092 L149.261155,15.3002688 C148.824344,14.772493 148.199822,14.4321328 147.517201,14.3498258 C147.278313,14.3339493 147.040877,14.3973107 146.842122,14.5299751 C146.689944,14.6313568 146.598544,14.8013812 146.598344,14.9834545 C146.599838,15.123787 146.653236,15.2586673 146.748362,15.3623892 C146.980667,15.5537604 147.239635,15.71069 147.517201,15.8282927 L148.45481,16.2941961 C149.239984,16.6266276 149.937336,17.1347128 150.492548,17.7788751 C151.368138,19.0480032 151.176697,20.7629508 150.042496,21.8104928 C149.299643,22.4400478 148.342102,22.7624409 147.367184,22.7112394 C145.951624,22.7648866 144.601959,22.115188 143.766764,20.9780786 L145.36695,19.257342 C145.6645,19.6004014 146.022474,19.8866922 146.423324,20.1021802 C146.74965,20.2957818 147.118854,20.4067108 147.498449,20.4252066 C147.791187,20.4394169 148.080044,20.3539535 148.317294,20.1829368 C148.50422,20.0566417 148.618288,19.8484251 148.62358,19.6238527 C148.62358,19.2324938 148.254787,18.8473469 147.51095,18.4746242 L146.64835,18.045993 C144.981489,17.2177203 144.148058,16.1823793 144.148058,14.9399701 C144.14291,14.1512712 144.485538,13.3998843 145.085668,12.883783 C145.754306,12.2984194 146.627432,11.9972817 147.517201,12.0451568 C148.840989,12.0411584 150.087535,12.6640344 150.873843,13.7224092 L150.84884,13.7224092 Z" id="Shape" fill="#275AA8" fill-rule="nonzero"></path>
                    <polygon id="Shape" fill="#275AA8" fill-rule="nonzero" points="158.337213 8.73413639 160.918764 8.73413639 162.912746 17.493121 165.381784 8.73413639 167.563289 8.73413639 170.06358 17.493121 172.03881 8.73413639 174.626612 8.73413639 171.501248 22.4503335 169.000956 22.4503335 166.45691 13.5857442 163.956618 22.4503335 161.456327 22.4503335"></polygon>
                    <path d="M183.021341,12.3060627 L185.58414,12.3060627 L185.58414,22.4503335 L183.021341,22.4503335 L183.021341,21.3818616 C182.585591,21.8095169 182.075122,22.1547398 181.514915,22.4006371 C180.997917,22.6130303 180.442854,22.7187061 179.883475,22.7112394 C178.574906,22.7155158 177.327465,22.1612609 176.458076,21.1892882 C175.493136,20.1625286 174.976279,18.7979833 175.020408,17.3937282 C174.962342,15.9784482 175.462476,14.5965459 176.414321,13.5422598 C177.269984,12.5718935 178.51029,12.0225447 179.808466,12.0389447 C180.401028,12.0340139 180.988272,12.150313 181.533668,12.3806073 C182.092664,12.6270807 182.597973,12.9794519 183.021341,13.4180189 L183.021341,12.3060627 Z M180.327277,14.3933101 C179.579391,14.3746025 178.86045,14.6808132 178.358297,15.2319363 C177.816149,15.8192961 177.532603,16.5975777 177.570706,17.3937282 C177.542172,18.1906613 177.829462,18.9668973 178.370799,19.5555202 C178.872149,20.1091835 179.590411,20.4196369 180.339778,20.4065704 C181.095312,20.4244868 181.822761,20.1217524 182.340012,19.5741563 C182.887673,18.9815032 183.177498,18.1977876 183.146356,17.3937282 C183.18291,16.6003986 182.896822,15.8258025 182.352513,15.2443604 C181.831358,14.6853381 181.093886,14.3754352 180.327277,14.3933101 L180.327277,14.3933101 Z" id="Shape" fill="#275AA8" fill-rule="nonzero"></path>
                    <path d="M194.135137,13.7224092 L192.522449,15.3002688 C192.081777,14.7707149 191.452699,14.4303122 190.765994,14.3498258 C190.527106,14.3339493 190.28967,14.3973107 190.090915,14.5299751 C189.938737,14.6313568 189.847337,14.8013812 189.847137,14.9834545 C189.848499,15.1249887 189.904429,15.2606137 190.003405,15.3623892 C190.232045,15.5556514 190.489252,15.7127919 190.765994,15.8282927 L191.703603,16.2941961 C192.500048,16.6224744 193.208476,17.1308322 193.772595,17.7788751 C194.649749,19.0465224 194.460985,20.7613057 193.328793,21.8104928 C192.583067,22.4393213 191.623916,22.7615037 190.64723,22.7112394 C189.244756,22.7523859 187.911957,22.1040529 187.084315,20.9780786 L188.653248,19.257342 C188.947599,19.603673 189.30624,19.8904972 189.709621,20.1021802 C190.035632,20.2964903 190.405019,20.4074741 190.784746,20.4252066 C191.075746,20.4410492 191.363171,20.3553553 191.597341,20.1829368 C191.785087,20.0566031 191.901132,19.8490156 191.909878,19.6238527 C191.909878,19.2324938 191.534834,18.8473469 190.790997,18.4746242 L189.928397,18.045993 C188.261535,17.2177203 187.428105,16.1823793 187.428105,14.9399701 C187.420543,14.1520902 187.760965,13.4005325 188.359464,12.883783 C189.015806,12.3057555 189.870854,12.0009999 190.747242,12.0327327 C192.073229,12.0267515 193.322523,12.6498404 194.110134,13.7099851 L194.135137,13.7224092 Z" id="Shape" fill="#275AA8" fill-rule="nonzero"></path>
                    <polygon id="Shape" fill="#275AA8" fill-rule="nonzero" points="198.148105 8.56641115 200.710904 8.56641115 200.710904 12.2936386 203.211195 12.2936386 203.211195 14.4864908 200.710904 14.4864908 200.710904 22.4379094 198.148105 22.4379094 198.148105 14.4989149 195.647813 14.4989149 195.647813 12.3060627 198.148105 12.3060627"></polygon>
                    <path d="M214.906309,18.1143255 L206.674099,18.1143255 C206.76493,18.7852163 207.103587,19.3985549 207.62421,19.8350622 C208.186737,20.2701157 208.88748,20.4904974 209.59944,20.4562668 C210.524862,20.4693851 211.415965,20.1084241 212.068478,19.4561274 L214.22498,20.4997511 C213.739661,21.2184945 213.073863,21.7988005 212.293504,22.1832155 C211.455943,22.5676011 210.54041,22.7546766 209.618192,22.7298756 C208.16135,22.7848772 206.746029,22.2411261 205.705236,21.2265605 C204.701592,20.22719 204.156675,18.8609694 204.19881,17.4496366 C204.152912,16.0156216 204.696861,14.6249131 205.705236,13.5981682 C206.684318,12.5877709 208.044579,12.0312619 209.455673,12.0637929 C210.920698,12.0069105 212.342517,12.5635548 213.37488,13.5981682 C214.409736,14.6892546 214.955496,16.1505497 214.887557,17.6484221 L214.906309,18.1143255 Z M212.34351,16.1078347 C212.177066,15.5487711 211.824419,15.0625019 211.343394,14.7287606 C210.835438,14.3735031 210.2267,14.1885301 209.605691,14.2007367 C208.929013,14.1980122 208.27017,14.4162676 207.730472,14.8219413 C207.314295,15.1756379 206.99226,15.6258307 206.792863,16.1326829 L212.34351,16.1078347 Z" id="Shape" fill="#275AA8" fill-rule="nonzero"></path>
                    <polygon id="Shape" fill="#275AA8" fill-rule="nonzero" points="57.1566647 26.2769537 59.7194636 26.2769537 62.9198367 35.8435042 66.1452128 26.2769537 68.7080117 26.2769537 71.0207813 39.9931508 68.4829854 39.9931508 67.0015627 31.333559 64.0699708 39.9931508 61.7509504 39.9931508 58.8443615 31.333559 57.3316851 39.9931508 54.7688863 39.9931508"></polygon>
                    <path d="M80.5906472,29.84888 L83.1346939,29.84888 L83.1346939,39.9931508 L80.571895,39.9931508 L80.571895,38.9246789 C80.1372202,39.3507634 79.6291014,39.6958291 79.0717201,39.9434545 C78.5523845,40.1553493 77.9953857,40.260989 77.4340292,40.2540567 C76.1272943,40.258159 74.8818466,39.7037781 74.0148805,38.7321055 C73.0492139,37.7078774 72.5301824,36.3457567 72.5709621,34.9427576 C72.5128962,33.5274776 73.0130304,32.1455753 73.9648746,31.0912892 C74.8205384,30.1209229 76.0608438,29.5715741 77.3590204,29.5879741 C77.951582,29.5830432 78.5388264,29.6993424 79.0842216,29.9296366 C79.6432178,30.1761101 80.1485266,30.5284812 80.571895,30.9670483 L80.5906472,29.84888 Z M77.8965831,31.9361274 C77.1490184,31.9190782 76.4307425,32.2250058 75.9276035,32.7747536 C75.3917115,33.3559323 75.1086244,34.124022 75.1400117,34.9116974 C75.1114783,35.7086304 75.3987683,36.4848664 75.940105,37.0734893 C76.4414554,37.6271527 77.1597167,37.9376061 77.9090845,37.9245396 C78.6649198,37.9440527 79.3930005,37.6410557 79.9093178,37.0921254 C80.4539982,36.4959629 80.7393612,35.7099302 80.7031603,34.9054853 C80.7397143,34.1121557 80.4536268,33.3375596 79.9093178,32.7561175 C79.3855482,32.2118192 78.6540739,31.9138159 77.8965831,31.9361274 Z" id="Shape" fill="#275AA8" fill-rule="nonzero"></path>
                    <path d="M85.9350204,29.84888 L88.4978192,29.84888 L88.4978192,30.8862917 C88.9684962,30.4687332 89.5021158,30.1270663 90.0792536,29.8737282 C90.5368355,29.6846043 91.027596,29.5874819 91.523172,29.5879741 C92.493956,29.5682271 93.4292304,29.9508244 94.104723,30.6440219 C94.7491875,31.3711002 95.0753865,32.3235193 95.0110787,33.2903534 L95.0110787,39.9931508 L92.4795335,39.9931508 L92.4795335,35.5515381 C92.5133599,34.74438 92.4567554,33.9359867 92.3107638,33.1412643 C92.2274305,32.7829638 92.0274944,32.4619889 91.7419475,32.2280936 C91.450953,32.0154871 91.0965689,31.906111 90.7355802,31.9174913 C90.2407001,31.9079946 89.7621127,32.0933323 89.4041749,32.4330911 C89.0066729,32.823211 88.7365848,33.3232452 88.6290845,33.8680737 C88.529676,34.5487358 88.4920202,35.2368994 88.5165714,35.9242608 L88.5165714,39.9931508 L85.9537726,39.9931508 L85.9350204,29.84888 Z" id="Shape" fill="#275AA8" fill-rule="nonzero"></path>
                    <path d="M105.181015,29.84888 L107.743813,29.84888 L107.743813,39.9931508 L105.181015,39.9931508 L105.181015,38.9246789 C104.745264,39.3523342 104.234796,39.6975572 103.674589,39.9434545 C103.157591,40.1558476 102.602528,40.2615235 102.043149,40.2540567 C100.73458,40.2583332 99.4871386,39.7040783 98.6177493,38.7321055 C97.6520827,37.7078774 97.1330512,36.3457567 97.1738309,34.9427576 C97.1181351,33.5267246 97.6204638,32.1449551 98.5739942,31.0912892 C99.4296579,30.1209229 100.669963,29.5715741 101.96814,29.5879741 C102.558753,29.5822881 103.14411,29.6986351 103.68709,29.9296366 C104.248003,30.175967 104.755387,30.528305 105.181015,30.9670483 L105.181015,29.84888 Z M102.511953,31.9361274 C101.762386,31.9180895 101.041794,32.2240322 100.536723,32.7747536 C99.4813113,34.0157225 99.4813113,35.8325204 100.536723,37.0734893 C101.039512,37.6288081 101.760419,37.9394189 102.511953,37.9245396 C103.267487,37.942456 103.994936,37.6397215 104.512187,37.0921254 C105.056867,36.4959629 105.34223,35.7099302 105.306029,34.9054853 C105.342583,34.1121557 105.056496,33.3375596 104.512187,32.7561175 C103.991368,32.2150725 103.265135,31.9173552 102.511953,31.9361274 L102.511953,31.9361274 Z" id="Shape" fill="#275AA8" fill-rule="nonzero"></path>
                    <path d="M118.020012,29.84888 L120.570309,29.84888 L120.570309,38.5146839 C120.570309,40.2292086 120.224435,41.4923245 119.532688,42.3040319 C118.595079,43.3973519 117.194915,43.9440119 115.319697,43.9440119 C114.470885,43.9638356 113.625009,43.8377394 112.819405,43.5712892 C112.167001,43.3413154 111.576671,42.9650771 111.094204,42.4717571 C110.601536,41.9866522 110.231034,41.3928342 110.012828,40.7385963 L112.838157,40.7385963 C113.102775,41.021146 113.4334,41.2345089 113.80077,41.3598009 C114.251195,41.5127321 114.725034,41.5863113 115.200933,41.5772225 C115.772352,41.6007277 116.341477,41.4922851 116.863627,41.2604082 C117.239853,41.0880526 117.550838,40.8007577 117.75123,40.4404181 C117.957941,39.8869337 118.045256,39.2964431 118.00751,38.7072573 C117.604635,39.1199293 117.122004,39.4474392 116.588595,39.6701244 C116.052445,39.8748088 115.481372,39.9739697 114.907149,39.9620906 C113.600656,39.9879584 112.344423,39.4619349 111.450496,38.5146839 C110.489577,37.5129805 109.971883,36.170831 110.012828,34.7874564 C109.94541,33.3406821 110.491912,31.9321754 111.519254,30.9049278 C112.374506,30.0436825 113.545921,29.5659039 114.763382,29.5817621 C115.333841,29.5771246 115.89937,29.6869951 116.426076,29.9047885 C117.012076,30.1574335 117.546091,30.5154526 118.001259,30.9608362 L118.020012,29.84888 Z M115.363452,31.9671877 C114.611881,31.9436291 113.885323,32.2369668 113.363219,32.7747536 C112.83879,33.3129505 112.554856,34.0385494 112.575627,34.7874564 C112.547538,35.561401 112.838822,36.313155 113.381971,36.8684918 C113.916336,37.4072192 114.652654,37.6999239 115.413458,37.6760577 C116.150545,37.700877 116.863713,37.4142155 117.376187,36.8871279 C118.413607,35.698389 118.413607,33.9324323 117.376187,32.7436934 C116.844395,32.2160123 116.114207,31.9343085 115.363452,31.9671877 L115.363452,31.9671877 Z" id="Shape" fill="#275AA8" fill-rule="nonzero"></path>
                    <path d="M133.540571,35.6571429 L125.314612,35.6571429 C125.403105,36.3287956 125.742197,36.9429226 126.264723,37.3778795 C126.827251,37.812933 127.527993,38.0333148 128.239953,37.9990841 C129.175887,38.0192585 130.079349,37.6578655 130.740245,36.9989447 L132.896746,38.0052962 C132.411427,38.7240396 131.74563,39.3043456 130.965271,39.6887606 C130.127498,40.0725065 129.212117,40.2595509 128.289959,40.2354206 C126.833117,40.2904223 125.417795,39.7466711 124.377003,38.7321055 C123.372671,37.7352797 122.825573,36.3715057 122.864327,34.9613937 C122.820339,33.5258635 123.363883,32.1339471 124.370752,31.1037133 C125.358413,30.0966182 126.72549,29.5468631 128.139942,29.5879741 C129.604966,29.5310917 131.026785,30.087736 132.059149,31.1223494 C133.094004,32.2134358 133.639764,33.6747309 133.571825,35.1726033 L133.540571,35.6571429 Z M130.977773,33.6506521 C130.81362,33.0904744 130.46047,32.6035115 129.977656,32.2715779 C129.47241,31.9156072 128.865396,31.730492 128.246204,31.743554 C127.569378,31.7399049 126.910244,31.9582566 126.370985,32.3647586 C125.954808,32.7184552 125.632773,33.168648 125.433376,33.6755002 L130.977773,33.6506521 Z" id="Shape" fill="#275AA8" fill-rule="nonzero"></path>
                    <path d="M135.715825,29.84888 L138.278624,29.84888 L138.278624,31.0167446 C139.084874,30.0925314 140.260833,29.5695807 141.491499,29.5879741 C142.099081,29.5799631 142.696757,29.7413701 143.2167,30.0538776 C143.750696,30.3852821 144.183076,30.8558076 144.466845,31.4143156 C145.218813,30.2598046 146.514776,29.5700867 147.898496,29.5879741 C148.572915,29.5740543 149.237746,29.7483801 149.817469,30.0911498 C150.340298,30.3981978 150.755047,30.8581069 151.005108,31.4081035 C151.29262,32.2553528 151.415646,33.1491507 151.36765,34.042011 L151.36765,39.9931508 L148.767347,39.9931508 L148.767347,34.8495769 C148.842453,34.0463976 148.693215,33.238191 148.336047,32.5138477 C148.04224,32.0978985 147.552634,31.8628374 147.042146,31.8926431 C146.618376,31.8881329 146.204315,32.0187674 145.860758,32.2653659 C145.506814,32.5267043 145.237413,32.8851218 145.085668,33.2965655 C144.885158,33.9819689 144.800664,34.6957249 144.835638,35.408661 L144.835638,39.9869388 L142.266589,39.9869388 L142.266589,35.0794226 C142.293664,34.4169274 142.226322,33.7539561 142.066566,33.1102041 C141.959165,32.7484631 141.740604,32.4291663 141.441493,32.1970333 C141.155563,31.9945087 140.811131,31.8898564 140.460128,31.8988552 C140.04136,31.8957063 139.633051,32.0287854 139.297493,32.2777899 C138.938638,32.5462018 138.66696,32.9133978 138.516152,33.3338377 C138.313467,34.031633 138.226899,34.7576584 138.259872,35.4832056 L138.259872,39.9931508 L135.697073,39.9931508 L135.715825,29.84888 Z" id="Shape" fill="#275AA8" fill-rule="nonzero"></path>
                    <path d="M164.225399,35.6571429 L155.99319,35.6571429 C156.08389,36.3295092 156.425176,36.9435691 156.949551,37.3778795 C157.511552,37.8139271 158.212676,38.0344288 158.924781,37.9990841 C159.849932,38.0107749 160.740496,37.650032 161.393819,36.9989447 L163.550321,38.0052962 C163.065002,38.7240396 162.399204,39.3043456 161.618845,39.6887606 C160.781072,40.0725065 159.865691,40.2595509 158.943534,40.2354206 C157.485159,40.2988231 156.065029,39.7617042 155.018076,38.7507417 C154.013744,37.7539159 153.466646,36.3901418 153.505399,34.9800299 C153.460173,33.5431041 154.006448,32.1499739 155.018076,31.1223494 C155.997598,30.112596 157.357562,29.5562087 158.768513,29.5879741 C160.235418,29.5308717 161.659251,30.0874168 162.693971,31.1223494 C163.728826,32.2134358 164.274586,33.6747309 164.206647,35.1726033 L164.225399,35.6571429 Z M161.662601,33.6506521 C161.487261,33.0991628 161.12784,32.6236302 160.643732,32.3026381 C160.138092,31.9474635 159.531349,31.7624307 158.91228,31.7746142 C158.235304,31.7700322 157.575876,31.9884813 157.037061,32.3958188 C156.618604,32.7487959 156.294377,33.1990502 156.093201,33.7065605 L161.662601,33.6506521 Z" id="Shape" fill="#275AA8" fill-rule="nonzero"></path>
                    <path d="M166.406904,29.84888 L168.969703,29.84888 L168.969703,30.8862917 C169.44038,30.4687332 169.973999,30.1270663 170.551137,29.8737282 C171.008719,29.6846043 171.499479,29.5874819 171.995055,29.5879741 C172.965839,29.5682271 173.901114,29.9508244 174.576606,30.6440219 C175.217385,31.3722645 175.537166,32.3256716 175.46421,33.2903534 L175.46421,39.9931508 L172.963918,39.9931508 L172.963918,35.5515381 C172.997745,34.74438 172.94114,33.9359867 172.795149,33.1412643 C172.71405,32.7820533 172.513696,32.4604072 172.226332,32.2280936 C171.935338,32.0154871 171.580954,31.906111 171.219965,31.9174913 C170.725085,31.9079946 170.246498,32.0933323 169.88856,32.4330911 C169.491058,32.823211 169.22097,33.3232452 169.113469,33.8680737 C169.014061,34.5487358 168.976405,35.2368994 169.000956,35.9242608 L169.000956,39.9931508 L166.438157,39.9931508 L166.406904,29.84888 Z" id="Shape" fill="#275AA8" fill-rule="nonzero"></path>
                    <polygon id="Shape" fill="#275AA8" fill-rule="nonzero" points="178.445808 26.0905923 181.008606 26.0905923 181.008606 29.8178198 182.521283 29.8178198 182.521283 32.010672 181.002356 32.010672 181.002356 39.9620906 178.439557 39.9620906 178.439557 32.0417322 177.120653 32.0417322 177.120653 29.84888 178.439557 29.84888"></polygon>
                    <path d="M189.928397,26.2769537 L192.716222,26.2769537 C194.222647,26.2769537 196.879207,26.4136187 197.548035,26.6931608 C198.206484,26.9574189 198.759739,27.4287025 199.123219,28.0349627 C199.523488,28.7069674 199.722954,29.4783442 199.698286,30.2588751 C199.731941,31.1161107 199.46701,31.9586426 198.948198,32.6443006 C198.423624,33.2906623 197.705486,33.754128 196.897959,33.9674664 C195.456454,34.1371031 194.005063,34.2097424 192.553703,34.184888 L192.553703,39.9931508 L189.928397,39.9931508 L189.928397,26.2769537 Z M192.553703,31.6379492 L194.960233,31.6379492 C195.42292,31.6610899 195.88648,31.6150208 196.335394,31.5012842 C196.590892,31.420935 196.811311,31.2566438 196.960466,31.0353808 C197.114846,30.8037548 197.193439,30.5303806 197.185493,30.252663 C197.217846,29.778504 196.97519,29.3275455 196.56042,29.0910105 C196.031674,28.8696869 195.4571,28.7780683 194.885224,28.8238925 L192.572455,28.8238925 L192.553703,31.6379492 Z" id="Shape" fill="#275AA8" fill-rule="nonzero"></path>
                    <path d="M201.479743,29.84888 L203.673749,29.84888 L203.673749,31.1285615 C203.876045,30.6647007 204.205219,30.2665402 204.62386,29.979333 C205.005616,29.7222651 205.45663,29.5858494 205.917761,29.5879741 C206.281077,29.5955008 206.63796,29.6847004 206.961633,29.84888 L206.161539,32.0417322 C205.933339,31.913314 205.679263,31.8369263 205.417703,31.8180986 C204.964438,31.8419427 204.566581,32.125754 204.398834,32.5449079 C204.051248,33.4534419 203.910361,34.4271829 203.986286,35.3962369 L203.986286,35.8932006 L203.986286,39.9931508 L201.442239,39.9931508 L201.479743,29.84888 Z" id="Shape" fill="#275AA8" fill-rule="nonzero"></path>
                    <path d="M212.812315,29.5879741 C213.766061,29.5847381 214.703852,29.8311256 215.531382,30.3023594 C217.2021,31.2415397 218.232289,33.0041152 218.225446,34.9116974 C218.236158,35.8521609 217.994507,36.7784745 217.525364,37.5953011 C217.067501,38.414572 216.390326,39.0918567 215.568886,39.5520956 C214.739672,40.0233834 213.798736,40.2657409 212.843569,40.2540567 C211.430519,40.2771699 210.071605,39.7144597 209.093131,38.7010453 C207.566968,37.1790204 207.106866,34.8964358 207.925349,32.9076306 C208.743831,30.9188254 210.681592,29.6108927 212.843569,29.5879741 L212.812315,29.5879741 Z M212.85607,31.9858238 C212.105213,31.9666887 211.381911,32.2673296 210.868338,32.8120259 C210.328617,33.3812708 210.042456,34.1426289 210.074496,34.9241215 C210.041111,35.7128403 210.321841,36.4828587 210.855837,37.0672773 C211.369409,37.6119735 212.092711,37.9126144 212.843569,37.8934793 C213.60096,37.9115904 214.330412,37.6089685 214.850052,37.0610652 C215.898875,35.8341389 215.898875,34.0327402 214.850052,32.8058138 C214.33252,32.2637661 213.607679,31.9656878 212.85607,31.9858238 L212.85607,31.9858238 Z" id="Shape" fill="#275AA8" fill-rule="nonzero"></path>
                    <path d="M227.932828,29.84888 L230.483125,29.84888 L230.483125,38.5146839 C230.483125,40.2292086 230.135168,41.4923245 229.439254,42.3040319 C228.505811,43.3973519 227.101481,43.9440119 225.226262,43.9440119 C224.377482,43.963338 223.531691,43.8372546 222.725971,43.5712892 C221.396437,43.1154188 220.36845,42.0521894 219.963149,40.7137481 L222.782227,40.7137481 C223.049108,40.9965577 223.381812,41.2098774 223.75109,41.3349527 C224.201516,41.4878839 224.675355,41.5614632 225.151254,41.5523743 C225.720666,41.576049 226.2878,41.467578 226.807697,41.23556 C227.185175,41.0650654 227.496684,40.7772855 227.6953,40.4155699 C227.907879,39.8635105 227.997448,39.2721985 227.957831,38.6824092 C227.554956,39.0950811 227.072325,39.422591 226.538915,39.6452763 C226.002596,39.8493521 225.431645,39.9484921 224.857469,39.9372424 C223.54187,39.9802098 222.270463,39.4625883 221.363312,38.5146839 C220.409227,37.5099729 219.898421,36.1681822 219.944397,34.7874564 C219.87842,33.3421034 220.422144,31.9349203 221.444571,30.9049278 C222.301746,30.0427271 223.475467,29.5649283 224.69495,29.5817621 C225.265346,29.5778033 225.83074,29.6876476 226.357644,29.9047885 C226.942825,30.1589164 227.476583,30.5167628 227.932828,30.9608362 L227.932828,29.84888 Z M225.276268,31.9671877 C224.524698,31.9436291 223.798139,32.2369668 223.276035,32.7747536 C222.751606,33.3129505 222.467672,34.0385494 222.488443,34.7874564 C222.460354,35.561401 222.751638,36.313155 223.294787,36.8684918 C223.827228,37.4062515 224.561234,37.6989374 225.320023,37.6760577 C226.058704,37.6995259 226.773268,37.4132146 227.289003,36.8871279 C227.817064,36.3244125 228.09623,35.5748816 228.064093,34.8060926 C228.09443,34.041997 227.812631,33.29817 227.282752,32.7436934 C226.752456,32.2176388 226.024883,31.9360695 225.276268,31.9671877 L225.276268,31.9671877 Z" id="Shape" fill="#275AA8" fill-rule="nonzero"></path>
                    <path d="M232.970915,29.84888 L235.164921,29.84888 L235.164921,31.1285615 C235.367217,30.6647007 235.696391,30.2665402 236.115032,29.979333 C236.496788,29.7222651 236.947802,29.5858494 237.408933,29.5879741 C237.772162,29.5961396 238.128904,29.685304 238.452805,29.84888 L237.652711,32.0417322 C237.424511,31.913314 237.170435,31.8369263 236.908875,31.8180986 C236.463629,31.8518507 236.076104,32.1334748 235.908758,32.5449079 C235.567248,33.4549194 235.428622,34.4277711 235.502461,35.3962369 L235.502461,35.8932006 L235.502461,39.9931508 L232.958414,39.9931508 L232.970915,29.84888 Z" id="Shape" fill="#275AA8" fill-rule="nonzero"></path>
                    <path d="M247.085061,29.84888 L249.64786,29.84888 L249.64786,39.9931508 L247.085061,39.9931508 L247.085061,38.9246789 C246.649311,39.3523342 246.138842,39.6975572 245.578636,39.9434545 C245.059448,40.1558434 244.502347,40.2615025 243.940945,40.2540567 C242.63421,40.258159 241.388762,39.7037781 240.521796,38.7321055 C239.556129,37.7078774 239.037098,36.3457567 239.077878,34.9427576 C239.022182,33.5267246 239.52451,32.1449551 240.478041,31.0912892 C241.330739,30.1205101 242.569408,29.5708739 243.865936,29.5879741 C244.458498,29.5830432 245.045742,29.6993424 245.591137,29.9296366 C246.152049,30.175967 246.659434,30.528305 247.085061,30.9670483 L247.085061,29.84888 Z M244.403499,31.9361274 C243.653931,31.9180895 242.93334,32.2240322 242.428268,32.7747536 C241.892376,33.3559323 241.609289,34.124022 241.640676,34.9116974 C241.612143,35.7086304 241.899433,36.4848664 242.44077,37.0734893 C242.942138,37.6234893 243.656792,37.9333675 244.403499,37.9245396 C245.16104,37.943443 245.890804,37.6406917 246.409983,37.0921254 C246.94942,36.4928405 247.233985,35.7090066 247.203825,34.9054853 C247.237564,34.1125896 246.951862,33.3390387 246.409983,32.7561175 C245.887687,32.2134487 245.158835,31.9155887 244.403499,31.9361274 L244.403499,31.9361274 Z" id="Shape" fill="#275AA8" fill-rule="nonzero"></path>
                    <path d="M252.416933,29.84888 L254.979732,29.84888 L254.979732,31.0167446 C255.383187,30.5601004 255.879606,30.1937953 256.436152,29.9420607 C256.987963,29.7028929 257.584377,29.5822315 258.186356,29.5879741 C258.796012,29.5791309 259.395923,29.7405563 259.917808,30.0538776 C260.453691,30.3830257 260.886615,30.8541447 261.167953,31.4143156 C261.545928,30.8435162 262.06166,30.3758231 262.668128,30.0538776 C263.265266,29.7415459 263.931095,29.5814551 264.605854,29.5879741 C265.280194,29.5747186 265.944844,29.7489971 266.524828,30.0911498 C267.047656,30.3981978 267.462406,30.8581069 267.712466,31.4081035 C267.99727,32.2558945 268.118159,33.1495696 268.068758,34.042011 L268.068758,39.9931508 L265.493458,39.9931508 L265.493458,34.8495769 C265.570618,34.0456399 265.41901,33.2363279 265.055907,32.5138477 C264.7621,32.0978985 264.272494,31.8628374 263.762006,31.8926431 C263.340033,31.8872552 262.927686,32.0180408 262.586869,32.2653659 C262.231071,32.524852 261.961211,32.8838809 261.811778,33.2965655 C261.611269,33.9819689 261.526775,34.6957249 261.561749,35.408661 L261.561749,39.9869388 L258.967697,39.9869388 L258.967697,35.0794226 C259.002792,34.4174272 258.939607,33.7539038 258.780175,33.1102041 C258.675528,32.7471741 258.456431,32.427094 258.155102,32.1970333 C257.871924,31.9937343 257.529183,31.8889282 257.179988,31.8988552 C256.76122,31.8957063 256.352911,32.0287854 256.017353,32.2777899 C255.656615,32.5443449 255.384475,32.9121643 255.236012,33.3338377 C255.030157,34.0309925 254.943527,34.757545 254.979732,35.4832056 L254.979732,39.9931508 L252.416933,39.9931508 L252.416933,29.84888 Z" id="Shape" fill="#275AA8" fill-rule="nonzero"></path>
                    <path d="M24.0340525,17.7850871 C27.8789679,17.7885172 30.9934129,20.888322 30.9911125,24.7094438 C30.988812,28.5305655 27.8706368,31.6266644 24.02572,31.625522 C20.1808032,31.6243797 17.0644913,28.5264286 17.0644898,24.7053061 C17.0679398,20.8823701 20.187309,17.7850856 24.0340525,17.7850871 L24.0340525,17.7850871 Z M24.0340525,10.9145645 C16.3702079,10.9145645 10.1574344,17.0888898 10.1574344,24.7053061 C10.1574344,32.3217224 16.3702079,38.4960478 24.0340525,38.4960478 C31.697897,38.4960478 37.9106706,32.3217224 37.9106706,24.7053061 C37.9106706,21.047774 36.4486739,17.5400449 33.8463032,14.9537792 C31.2439325,12.3675134 27.7143604,10.9145645 24.0340525,10.9145645 L24.0340525,10.9145645 Z" id="Shape" fill="#A2CF6C" fill-rule="nonzero"></path>
                    <path d="M45.6303207,14.0578596 L39.629621,17.499333 C41.9110978,22.4920912 41.6276063,28.2722217 38.868357,33.0208035 C36.1091076,37.7693854 31.2133661,40.9025531 25.7217493,41.4343454 L25.7217493,48.2675958 C33.679484,47.7291769 40.8461779,43.2914579 44.8394565,36.4296391 C48.8327352,29.5678204 49.129208,21.1812658 45.6303207,14.0578596 Z" id="Shape" fill="#23AC6A" fill-rule="nonzero"></path>
                    <path d="M10.1386822,14.5983076 C13.3429364,10.1389618 18.5171767,7.49228647 24.0309271,7.49228647 C29.5446775,7.49228647 34.7189178,10.1389618 37.923172,14.5983076 L43.9488746,11.1381981 C39.4800317,4.56145126 32.0161963,0.619961463 24.0309271,0.619961463 C16.045658,0.619961463 8.58182257,4.56145126 4.11297959,11.1381981 L10.1386822,14.5983076 Z" id="Shape" fill="#41C2CC" fill-rule="nonzero"></path>
                    <path d="M22.340105,41.4343454 C16.850752,40.8988977 11.9585812,37.7642555 9.20213953,33.0162377 C6.44569784,28.2682198 6.16366378,22.4902059 8.44473469,17.499333 L2.44403499,14.0578596 C-1.06809785,21.1821319 -0.780258793,29.5766592 3.21172693,36.4467984 C7.20371265,43.3169376 14.3757226,47.760683 22.340105,48.298656 L22.340105,41.4343454 Z" id="Shape" fill="#275AA8" fill-rule="nonzero"></path>
                </g>
            </g>
        </g>
    </g>
</svg>