<?xml version="1.0" encoding="UTF-8"?>
<svg width="73px" height="73px" viewBox="0 0 73 73" version="1.1" 
    xmlns="http://www.w3.org/2000/svg" 
    xmlns:xlink="http://www.w3.org/1999/xlink">
    <!-- Generator: sketchtool 53.2 (72643) - https://sketchapp.com -->
    <title>2CE89C26-B32C-4F3D-A50F-ACC00F5E21C2</title>
    <desc>Created with sketchtool.</desc>
    <g id="Page-1" stroke="none" stroke-width="1" fill="none" fill-rule="evenodd">
        <g id="Household-disposal-options" transform="translate(-79.000000, -2379.000000)">
            <g id="Check-OK" transform="translate(78.000000, 2379.000000)">
                <path d="M58.9516428,58.8633773 L58.9516428,58.8633773 L58.7584964,59.0564651 C53.1572503,64.559466 45.4957757,67.970683 37.0617155,67.970683 C28.4666999,67.970683 20.7408432,64.4307408 15.1395971,58.8633773 C9.50615992,53.2960138 5.99733333,45.5403225 5.99733333,36.9479175 C5.99733333,28.4198751 9.50615992,20.6641838 15.1395971,15.064639 L15.2683614,14.8393699 C20.8696075,9.33636899 28.5632731,5.95733333 37.0617155,5.95733333 C45.62454,5.95733333 53.3182056,9.43291287 58.9516428,15.0324577 L58.9516428,15.064639 C64.5528889,20.6641838 67.9973333,28.4198751 67.9973333,36.9479175 C67.9973333,45.5403225 64.5528889,53.2960138 58.9516428,58.8633773 M62.4167924,11.5088069 L62.4167924,11.5088069 L62.4167924,11.5669417 L62.4167924,11.5088069 C55.9347576,4.99770475 46.9238574,0.957333333 37.0409345,0.957333333 C27.187079,0.957333333 18.263381,4.93956991 11.7813463,11.3344024 L11.5197395,11.5088069 C5.03770475,18.019909 0.997333333,27.0308093 0.997333333,36.9427996 C0.997333333,46.8838574 5.03770475,55.9238251 11.5197395,62.4058598 L11.5488069,62.4058598 C18.0889765,68.9169619 27.0998767,72.9573333 37.0409345,72.9573333 C46.8366551,72.9573333 55.7312857,69.0041642 62.2423878,62.6093317 L62.4167924,62.4058598 C68.9569619,55.9238251 73.0264008,46.8838574 73.0264008,36.9427996 C73.0264008,27.0308093 68.9569619,18.019909 62.4167924,11.5088069" id="Fill-1" fill="#047786"></path>
                <path d="M58.6089603,23.9670225 C57.068387,22.4264492 54.5395215,22.4264492 52.9408133,23.9670225 L30.3554278,46.6686777 L20.9957185,37.3380358 C19.4551452,35.7683951 16.8972122,35.7683951 15.3566389,37.3380358 C13.8160657,38.9076765 13.8160657,41.4365421 15.4147738,42.9771153 L27.3033487,54.9238251 L27.5068206,55.127297 C29.1055287,56.6678703 31.6053269,56.6678703 33.204035,55.127297 L58.6089603,29.6642368 C60.2076684,28.0655287 60.2076684,25.5657306 58.6089603,23.9670225" id="Path" fill="#9ECC64"></path>
            </g>
        </g>
    </g>
</svg>