<?xml version="1.0" encoding="UTF-8"?>
<svg width="73px" height="73px" viewBox="0 0 73 73" version="1.1" 
    xmlns="http://www.w3.org/2000/svg" 
    xmlns:xlink="http://www.w3.org/1999/xlink">
    <!-- Generator: sketchtool 53.2 (72643) - https://sketchapp.com -->
    <title>59E9A7C3-0A18-4EC2-AA2A-226F5718DDF4</title>
    <desc>Created with sketchtool.</desc>
    <g id="Page-1" stroke="none" stroke-width="1" fill="none" fill-rule="evenodd">
        <g id="Household-disposal-options" transform="translate(-791.000000, -2379.000000)">
            <g id="CrossedOut-NotOK" transform="translate(790.000000, 2379.000000)">
                <path d="M57.5352357,57.450819 L57.5352357,57.450819 L57.3545504,57.6314521 C52.114675,62.7794972 44.9474891,65.970683 37.0575618,65.970683 C29.0170633,65.970683 21.789649,62.659075 16.5497736,57.450819 C11.279784,52.2425629 7.99733333,44.987131 7.99733333,36.9489554 C7.99733333,28.9709909 11.279784,21.715559 16.5497736,16.4771973 L16.6702305,16.2664587 C21.9101059,11.1184136 29.107406,7.95733333 37.0575618,7.95733333 C45.067946,7.95733333 52.2652461,11.2087302 57.5352357,16.4470918 L57.5352357,16.4771973 C62.7751111,21.715559 65.9973333,28.9709909 65.9973333,36.9489554 C65.9973333,44.987131 62.7751111,52.2425629 57.5352357,57.450819 M62.4167924,11.5088069 L62.4167924,11.5088069 L62.4167924,11.5669417 L62.4167924,11.5088069 C55.9347576,4.99770475 46.9238574,0.957333333 37.0409345,0.957333333 C27.187079,0.957333333 18.263381,4.93956991 11.7813463,11.3344024 L11.5197395,11.5088069 C5.03770475,18.019909 0.997333333,27.0308093 0.997333333,36.9427996 C0.997333333,46.8838574 5.03770475,55.9238251 11.5197395,62.4058598 L11.5488069,62.4058598 C18.0889765,68.9169619 27.0998767,72.9573333 37.0409345,72.9573333 C46.8366551,72.9573333 55.7312857,69.0041642 62.2423878,62.6093317 L62.4167924,62.4058598 C68.9569619,55.9238251 73.0264008,46.8838574 73.0264008,36.9427996 C73.0264008,27.0308093 68.9569619,18.019909 62.4167924,11.5088069" id="Fill-1" fill="#D0021B"></path>
                <path d="M49.3567091,19.9564219 C30.0446049,39.2778428 19.9770325,49.3489993 19.1539919,50.1698913 C17.9194309,51.4012293 18.6183433,53.6701328 19.6274804,54.6701328 C20.8003397,55.8323726 23.4650562,56.1799847 24.7098384,54.9528598 L55.0248561,25.6536362 C56.6235642,24.0549281 56.6235642,21.55513 55.0248561,19.9564219 C53.4842828,18.4158486 50.9554172,18.4158486 49.3567091,19.9564219 Z" id="Path" fill="#A30707"></path>
            </g>
        </g>
    </g>
</svg>