<?xml version="1.0" encoding="UTF-8"?>
<svg width="20px" height="20px" viewBox="0 0 20 20" version="1.1" 
    xmlns="http://www.w3.org/2000/svg" 
    xmlns:xlink="http://www.w3.org/1999/xlink">
    <!-- Generator: sketchtool 53.2 (72643) - https://sketchapp.com -->
    <title>C9D77516-8378-4315-B908-A2EED3CDFC61</title>
    <desc>Created with sketchtool.</desc>
    <g id="Page-1" stroke="none" stroke-width="1" fill="none" fill-rule="evenodd">
        <g id="Hazardous-waste-homepage-Option-2" transform="translate(-1070.000000, -2287.000000)" fill="#B6C0C4" fill-rule="nonzero">
            <g id="Footer" transform="translate(0.000000, 2197.000000)">
                <g id="instagram">
                    <path d="M1080.00223,94.8722526 C1077.16453,94.8722526 1074.87563,97.1616646 1074.87563,100 C1074.87563,102.838335 1077.16453,105.127747 1080.00223,105.127747 C1082.83993,105.127747 1085.12883,102.838335 1085.12883,100 C1085.12883,97.1616646 1082.83993,94.8722526 1080.00223,94.8722526 Z M1080.00223,103.333705 C1078.16843,103.333705 1076.66927,101.83867 1076.66927,100 C1076.66927,98.1613299 1078.16397,96.6662948 1080.00223,96.6662948 C1081.84049,96.6662948 1083.33519,98.1613299 1083.33519,100 C1083.33519,101.83867 1081.83603,103.333705 1080.00223,103.333705 L1080.00223,103.333705 Z M1086.5343,94.6625014 C1086.5343,95.3274573 1085.99888,95.8585295 1085.33854,95.8585295 C1084.67373,95.8585295 1084.14278,95.3229945 1084.14278,94.6625014 C1084.14278,94.0020083 1084.67819,93.4664733 1085.33854,93.4664733 C1085.99888,93.4664733 1086.5343,94.0020083 1086.5343,94.6625014 Z M1089.92973,95.8763807 C1089.85388,94.2742385 1089.48801,92.8550708 1088.31456,91.6858195 C1087.14557,90.5165681 1085.72672,90.1506192 1084.12493,90.070289 C1082.47407,89.9765703 1077.52593,89.9765703 1075.87507,90.070289 C1074.27775,90.1461564 1072.8589,90.5121053 1071.68544,91.6813567 C1070.51199,92.8506081 1070.15059,94.2697757 1070.07027,95.8719179 C1069.97658,97.5231507 1069.97658,102.472386 1070.07027,104.123619 C1070.14612,105.725761 1070.51199,107.144929 1071.68544,108.314181 C1072.8589,109.483432 1074.27328,109.849381 1075.87507,109.929711 C1077.52593,110.02343 1082.47407,110.02343 1084.12493,109.929711 C1085.72672,109.853844 1087.14557,109.487895 1088.31456,108.314181 C1089.48355,107.144929 1089.84941,105.725761 1089.92973,104.123619 C1090.02342,102.472386 1090.02342,97.5276135 1089.92973,95.8763807 Z M1087.79699,105.895348 C1087.44897,106.770055 1086.77524,107.443936 1085.89626,107.796497 C1084.58003,108.318643 1081.45678,108.198148 1080.00223,108.198148 C1078.54769,108.198148 1075.41997,108.314181 1074.1082,107.796497 C1073.23369,107.448399 1072.55996,106.774517 1072.20747,105.895348 C1071.68544,104.578824 1071.80591,101.45487 1071.80591,100 C1071.80591,98.54513 1071.68991,95.4167132 1072.20747,94.1046525 C1072.55549,93.2299453 1073.22922,92.5560638 1074.1082,92.2035033 C1075.42443,91.6813567 1078.54769,91.8018521 1080.00223,91.8018521 C1081.45678,91.8018521 1084.5845,91.6858195 1085.89626,92.2035033 C1086.77078,92.551601 1087.44451,93.2254825 1087.79699,94.1046525 C1088.31902,95.4211759 1088.19855,98.54513 1088.19855,100 C1088.19855,101.45487 1088.31902,104.583287 1087.79699,105.895348 Z"></path>
                </g>
            </g>
        </g>
    </g>
</svg>