<?xml version="1.0" encoding="UTF-8"?>
<svg width="40px" height="40px" viewBox="0 0 40 40" version="1.1" xmlns="http://www.w3.org/2000/svg" xmlns:xlink="http://www.w3.org/1999/xlink">
    <!-- Generator: sketchtool 53 (72520) - https://sketchapp.com -->
    <title>B9E6E516-06ED-4515-9272-9932725DB30A</title>
    <desc>Created with sketchtool.</desc>
    <g id="Page-1" stroke="none" stroke-width="1" fill="none" fill-rule="evenodd">
        <g id="Mobile-Navigation" transform="translate(-871.000000, -1694.000000)" fill-rule="nonzero">
            <g id="Mobile-search" transform="translate(852.000000, 1684.000000)">
                <g id="HWMP-brandMark" transform="translate(19.000000, 10.000000)">
                    <path d="M19.6082013,14.5692022 C22.7450787,14.5720121 25.2860012,17.1113127 25.2841244,20.2415024 C25.2822476,23.371692 22.7382818,25.9079568 19.6014033,25.9070211 C16.4645248,25.9060853 13.9220792,23.3683031 13.9220779,20.2381129 C13.9248926,17.106437 16.4698325,14.569201 19.6082013,14.5692022 L19.6082013,14.5692022 Z M19.6082013,8.94100186 C13.3556475,8.94100186 8.28695114,13.9988908 8.28695114,20.2381129 C8.28695114,26.4773351 13.3556475,31.535224 19.6082013,31.535224 C25.8607551,31.535224 30.9294515,26.4773351 30.9294515,20.2381129 C30.9294515,17.2419328 29.7366804,14.3684684 27.6135341,12.2498491 C25.4903878,10.1312298 22.6107836,8.94100186 19.6082013,8.94100186 L19.6082013,8.94100186 Z" id="Shape" fill="#A2CF6C"></path>
                    <path d="M37.2275344,11.515929 L32.3318586,14.3351179 C34.1932034,18.4250897 33.9619166,23.1600617 31.7107807,27.0500089 C29.4596449,30.939956 25.4654502,33.5065869 20.9851101,33.942221 L20.9851101,39.5398887 C27.4774345,39.0988262 33.3243875,35.4635319 36.5823072,29.8424616 C39.8402268,24.2213913 40.0821045,17.3512866 37.2275344,11.515929 Z" id="Shape" fill="#23AC6A"></path>
                    <path d="M8.27165216,11.9586536 C10.8858456,8.30564299 15.1072538,6.13753737 19.6056515,6.13753737 C24.1040492,6.13753737 28.3254574,8.30564299 30.9396508,11.9586536 L35.8557252,9.12419825 C32.209816,3.73665338 26.1204398,0.507860539 19.6056515,0.507860539 C13.0908631,0.507860539 7.00148694,3.73665338 3.35557776,9.12419825 L8.27165216,11.9586536 Z" id="Shape" fill="#41C2CC"></path>
                    <path d="M18.2261929,33.942221 C13.7476997,33.5035925 9.75641825,30.9357538 7.50757304,27.0462686 C5.25872784,23.1567835 5.02863012,18.4235453 6.88964369,14.3351179 L1.99396794,11.515929 C-0.8714085,17.3519961 -0.636574773,24.2286319 2.62029003,29.8565182 C5.87715484,35.4844044 11.728445,39.1246354 18.2261929,39.5653326 L18.2261929,33.942221 Z" id="Shape" fill="#275AA8"></path>
                </g>
            </g>
        </g>
    </g>
</svg>