<svg id="Layer_1" data-name="Layer 1" xmlns="http://www.w3.org/2000/svg" viewBox="0 0 29.76 29.75"><title>hazwaste-logo-black</title><g id="icon_shadow" data-name="icon shadow"><path d="M14.82,10.65a4.3,4.3,0,1,1-4.3,4.3h0a4.33,4.33,0,0,1,4.3-4.3m0-4.3a8.6,8.6,0,1,0,8.6,8.6h0a8.66,8.66,0,0,0-8.6-8.6Z"/><path d="M28.22,8.35l-3.7,2.1a10.58,10.58,0,0,1-5.2,14h0a10.17,10.17,0,0,1-3.3.9v4.3a14.73,14.73,0,0,0,13.7-15.8,13.29,13.29,0,0,0-1.5-5.5Z"/><path d="M6.32,8.65A10.55,10.55,0,0,1,21,6.25a10.92,10.92,0,0,1,2.4,2.4l3.7-2.1a14.82,14.82,0,0,0-20.6-4,15.22,15.22,0,0,0-4,4Z"/><path d="M13.82,25.35a10.54,10.54,0,0,1-9.5-11.5,10.08,10.08,0,0,1,.9-3.4l-3.7-2.1a15,15,0,0,0,6.7,19.9,13.33,13.33,0,0,0,5.6,1.5Z"/></g></svg>